<?xml version="1.0" encoding="UTF-8"?>
<svg xmlns="http://www.w3.org/2000/svg" xmlns:xlink="http://www.w3.org/1999/xlink" width="25px" height="25px" viewBox="0 0 25 25" version="1.1">
<g id="surface1">
<path style=" stroke:none;fill-rule:nonzero;fill:rgb(27.45098%,59.607843%,87.843137%);fill-opacity:1;" d="M 6.992188 -0.0078125 C 7.039062 -0.0078125 7.089844 -0.0078125 7.140625 -0.0078125 C 7.300781 -0.0078125 7.464844 -0.0078125 7.628906 -0.0078125 C 7.746094 -0.0078125 7.859375 -0.0078125 7.976562 -0.0078125 C 8.296875 -0.0078125 8.613281 -0.0078125 8.929688 -0.0117188 C 9.128906 -0.0117188 9.328125 -0.0117188 9.527344 -0.0117188 C 10.078125 -0.0117188 10.628906 -0.0117188 11.179688 -0.0117188 C 11.214844 -0.0117188 11.25 -0.0117188 11.285156 -0.0117188 C 11.320312 -0.0117188 11.355469 -0.0117188 11.394531 -0.0117188 C 11.464844 -0.0117188 11.535156 -0.0117188 11.605469 -0.0117188 C 11.644531 -0.0117188 11.679688 -0.0117188 11.714844 -0.0117188 C 12.289062 -0.0117188 12.863281 -0.0117188 13.4375 -0.015625 C 14.027344 -0.015625 14.617188 -0.015625 15.207031 -0.015625 C 15.539062 -0.015625 15.871094 -0.015625 16.199219 -0.015625 C 16.511719 -0.0195312 16.824219 -0.0195312 17.136719 -0.015625 C 17.25 -0.015625 17.363281 -0.0195312 17.476562 -0.0195312 C 19.59375 -0.0273438 21.457031 0.683594 22.976562 2.175781 C 23.390625 2.59375 23.726562 3.058594 24.023438 3.5625 C 24.039062 3.59375 24.058594 3.621094 24.074219 3.652344 C 24.667969 4.664062 25.007812 5.816406 25.007812 6.992188 C 25.007812 7.0625 25.007812 7.0625 25.007812 7.140625 C 25.007812 7.300781 25.007812 7.464844 25.007812 7.628906 C 25.007812 7.746094 25.007812 7.859375 25.007812 7.976562 C 25.007812 8.296875 25.007812 8.613281 25.011719 8.929688 C 25.011719 9.128906 25.011719 9.328125 25.011719 9.527344 C 25.011719 10.078125 25.011719 10.628906 25.011719 11.179688 C 25.011719 11.214844 25.011719 11.25 25.011719 11.285156 C 25.011719 11.320312 25.011719 11.355469 25.011719 11.394531 C 25.011719 11.464844 25.011719 11.535156 25.011719 11.605469 C 25.011719 11.644531 25.011719 11.679688 25.011719 11.714844 C 25.011719 12.289062 25.011719 12.863281 25.015625 13.4375 C 25.015625 14.027344 25.015625 14.617188 25.015625 15.207031 C 25.015625 15.539062 25.015625 15.871094 25.015625 16.199219 C 25.019531 16.511719 25.019531 16.824219 25.015625 17.136719 C 25.015625 17.25 25.019531 17.363281 25.019531 17.476562 C 25.027344 19.59375 24.316406 21.457031 22.824219 22.976562 C 22.40625 23.390625 21.941406 23.726562 21.4375 24.023438 C 21.40625 24.039062 21.378906 24.058594 21.347656 24.074219 C 20.335938 24.667969 19.183594 25.007812 18.007812 25.007812 C 17.960938 25.007812 17.910156 25.007812 17.859375 25.007812 C 17.699219 25.007812 17.535156 25.007812 17.371094 25.007812 C 17.253906 25.007812 17.140625 25.007812 17.023438 25.007812 C 16.703125 25.007812 16.386719 25.007812 16.070312 25.011719 C 15.871094 25.011719 15.671875 25.011719 15.472656 25.011719 C 14.921875 25.011719 14.371094 25.011719 13.820312 25.011719 C 13.769531 25.011719 13.769531 25.011719 13.714844 25.011719 C 13.679688 25.011719 13.644531 25.011719 13.605469 25.011719 C 13.535156 25.011719 13.464844 25.011719 13.394531 25.011719 C 13.355469 25.011719 13.320312 25.011719 13.285156 25.011719 C 12.710938 25.011719 12.136719 25.011719 11.5625 25.015625 C 10.972656 25.015625 10.382812 25.015625 9.792969 25.015625 C 9.460938 25.015625 9.128906 25.015625 8.800781 25.015625 C 8.488281 25.019531 8.175781 25.019531 7.863281 25.015625 C 7.75 25.015625 7.636719 25.019531 7.523438 25.019531 C 5.40625 25.027344 3.542969 24.316406 2.023438 22.824219 C 1.609375 22.40625 1.273438 21.941406 0.976562 21.433594 C 0.960938 21.40625 0.941406 21.378906 0.925781 21.347656 C 0.195312 20.101562 -0.0390625 18.753906 -0.03125 17.324219 C -0.03125 17.207031 -0.03125 17.089844 -0.03125 16.972656 C -0.0351562 16.65625 -0.0351562 16.339844 -0.03125 16.027344 C -0.03125 15.828125 -0.03125 15.628906 -0.03125 15.433594 C -0.03125 15.398438 -0.03125 15.367188 -0.03125 15.332031 C -0.03125 15.265625 -0.03125 15.199219 -0.03125 15.128906 C -0.0351562 14.503906 -0.03125 13.875 -0.03125 13.25 C -0.03125 12.714844 -0.03125 12.179688 -0.03125 11.644531 C -0.03125 11.019531 -0.0351562 10.394531 -0.03125 9.769531 C -0.03125 9.703125 -0.03125 9.632812 -0.03125 9.566406 C -0.03125 9.535156 -0.03125 9.5 -0.03125 9.46875 C -0.03125 9.238281 -0.03125 9.007812 -0.0351562 8.78125 C -0.0351562 8.46875 -0.0351562 8.160156 -0.03125 7.847656 C -0.03125 7.738281 -0.03125 7.625 -0.03125 7.511719 C -0.0429688 5.4375 0.675781 3.566406 2.121094 2.078125 C 3.390625 0.8125 5.191406 -0.0078125 6.992188 -0.0078125 Z M 6.992188 -0.0078125 "/>
<path style=" stroke:none;fill-rule:nonzero;fill:rgb(99.607843%,99.607843%,99.607843%);fill-opacity:1;" d="M 13.609375 3.765625 C 13.988281 4.023438 14.296875 4.363281 14.617188 4.683594 C 14.691406 4.761719 14.765625 4.835938 14.84375 4.910156 C 15.046875 5.113281 15.25 5.316406 15.453125 5.519531 C 15.621094 5.6875 15.792969 5.859375 15.960938 6.027344 C 16.363281 6.425781 16.761719 6.828125 17.164062 7.226562 C 17.574219 7.640625 17.988281 8.054688 18.402344 8.464844 C 18.757812 8.820312 19.109375 9.175781 19.464844 9.527344 C 19.675781 9.742188 19.890625 9.953125 20.101562 10.164062 C 20.300781 10.363281 20.5 10.5625 20.699219 10.761719 C 20.769531 10.835938 20.84375 10.90625 20.917969 10.980469 C 21.015625 11.078125 21.117188 11.179688 21.214844 11.277344 C 21.246094 11.308594 21.273438 11.335938 21.304688 11.363281 C 21.535156 11.601562 21.738281 11.875 21.808594 12.207031 C 21.796875 12.585938 21.714844 12.832031 21.46875 13.121094 C 21.175781 13.367188 20.964844 13.457031 20.589844 13.445312 C 20.53125 13.445312 20.53125 13.445312 20.476562 13.445312 C 20.355469 13.445312 20.238281 13.441406 20.121094 13.441406 C 20.039062 13.4375 19.957031 13.4375 19.878906 13.4375 C 19.679688 13.433594 19.484375 13.433594 19.285156 13.425781 C 19.289062 13.464844 19.289062 13.503906 19.289062 13.542969 C 19.292969 14.453125 19.296875 15.363281 19.296875 16.273438 C 19.296875 16.710938 19.300781 17.152344 19.300781 17.59375 C 19.304688 17.976562 19.304688 18.359375 19.304688 18.746094 C 19.304688 18.949219 19.304688 19.152344 19.308594 19.355469 C 19.308594 19.546875 19.308594 19.738281 19.308594 19.929688 C 19.308594 20 19.308594 20.070312 19.308594 20.140625 C 19.316406 20.574219 19.300781 20.898438 19.007812 21.242188 C 18.980469 21.261719 18.953125 21.285156 18.925781 21.308594 C 18.898438 21.328125 18.871094 21.351562 18.839844 21.375 C 18.605469 21.53125 18.390625 21.546875 18.113281 21.542969 C 18.078125 21.542969 18.039062 21.542969 18 21.542969 C 17.871094 21.542969 17.742188 21.542969 17.617188 21.542969 C 17.527344 21.542969 17.441406 21.542969 17.351562 21.542969 C 17.121094 21.542969 16.886719 21.539062 16.65625 21.539062 C 16.417969 21.539062 16.183594 21.539062 15.945312 21.539062 C 15.480469 21.535156 15.015625 21.535156 14.550781 21.53125 C 14.550781 21.449219 14.550781 21.449219 14.550781 21.367188 C 14.546875 20.847656 14.546875 20.328125 14.542969 19.804688 C 14.539062 19.539062 14.539062 19.273438 14.539062 19.003906 C 14.535156 18.746094 14.535156 18.488281 14.53125 18.230469 C 14.53125 18.132812 14.53125 18.03125 14.53125 17.933594 C 14.53125 17.128906 14.449219 16.5 13.886719 15.878906 C 13.417969 15.441406 12.855469 15.359375 12.242188 15.367188 C 11.726562 15.386719 11.359375 15.648438 11 16.003906 C 10.59375 16.449219 10.484375 16.960938 10.484375 17.546875 C 10.480469 17.613281 10.480469 17.613281 10.480469 17.679688 C 10.480469 17.820312 10.480469 17.960938 10.476562 18.105469 C 10.476562 18.203125 10.476562 18.300781 10.476562 18.402344 C 10.472656 18.660156 10.46875 18.921875 10.46875 19.179688 C 10.464844 19.445312 10.464844 19.710938 10.460938 19.976562 C 10.457031 20.496094 10.453125 21.015625 10.449219 21.53125 C 9.933594 21.539062 9.421875 21.546875 8.90625 21.546875 C 8.667969 21.550781 8.429688 21.550781 8.1875 21.554688 C 7.957031 21.558594 7.726562 21.558594 7.496094 21.5625 C 7.410156 21.5625 7.320312 21.5625 7.234375 21.5625 C 6.402344 21.578125 6.402344 21.578125 6.082031 21.316406 C 5.773438 21.011719 5.65625 20.71875 5.644531 20.289062 C 5.644531 20.160156 5.644531 20.035156 5.648438 19.90625 C 5.648438 19.835938 5.648438 19.765625 5.648438 19.695312 C 5.648438 19.507812 5.648438 19.316406 5.648438 19.125 C 5.648438 18.925781 5.648438 18.730469 5.648438 18.53125 C 5.652344 18.152344 5.652344 17.777344 5.652344 17.402344 C 5.65625 16.972656 5.65625 16.546875 5.65625 16.117188 C 5.660156 15.238281 5.660156 14.355469 5.664062 13.476562 C 5.621094 13.476562 5.574219 13.480469 5.527344 13.480469 C 5.359375 13.484375 5.191406 13.488281 5.023438 13.488281 C 4.949219 13.492188 4.878906 13.492188 4.804688 13.496094 C 4.332031 13.507812 3.90625 13.5 3.535156 13.160156 C 3.46875 13.089844 3.46875 13.089844 3.367188 12.9375 C 3.339844 12.898438 3.3125 12.855469 3.28125 12.8125 C 3.183594 12.535156 3.144531 12.238281 3.265625 11.964844 C 3.511719 11.519531 3.875 11.1875 4.230469 10.832031 C 4.304688 10.757812 4.378906 10.6875 4.449219 10.613281 C 4.648438 10.414062 4.847656 10.214844 5.046875 10.015625 C 5.253906 9.808594 5.460938 9.601562 5.671875 9.390625 C 6.019531 9.042969 6.371094 8.691406 6.722656 8.34375 C 7.125 7.941406 7.527344 7.539062 7.933594 7.132812 C 8.320312 6.746094 8.710938 6.355469 9.097656 5.96875 C 9.265625 5.800781 9.429688 5.636719 9.59375 5.472656 C 9.789062 5.277344 9.984375 5.082031 10.179688 4.886719 C 10.25 4.816406 10.320312 4.746094 10.394531 4.675781 C 11.300781 3.761719 12.324219 2.980469 13.609375 3.765625 Z M 13.609375 3.765625 "/>
<path style=" stroke:none;fill-rule:nonzero;fill:rgb(7.843137%,37.647059%,65.882353%);fill-opacity:1;" d="M 21.679688 11.816406 C 21.722656 11.851562 21.765625 11.890625 21.808594 11.929688 C 21.953125 12.050781 22.101562 12.171875 22.25 12.292969 C 25.046875 14.558594 25.046875 14.558594 25.191406 15.898438 C 25.21875 16.242188 25.214844 16.582031 25.195312 16.929688 C 25.191406 16.964844 25.191406 17 25.1875 17.039062 C 25.15625 17.535156 25.085938 18.015625 25 18.507812 C 24.984375 18.597656 24.972656 18.691406 24.957031 18.785156 C 24.667969 20.679688 23.660156 22.425781 22.117188 23.585938 C 21.898438 23.742188 21.667969 23.886719 21.4375 24.023438 C 21.40625 24.039062 21.378906 24.058594 21.347656 24.074219 C 19.257812 25.296875 16.644531 25.152344 14.300781 25.214844 C 14.25 25.21875 14.199219 25.21875 14.148438 25.222656 C 9.597656 25.347656 9.597656 25.347656 8.113281 24.015625 C 7.878906 23.789062 7.664062 23.550781 7.457031 23.296875 C 7.410156 23.234375 7.410156 23.234375 7.355469 23.175781 C 6.296875 21.863281 6.296875 21.863281 6.296875 21.484375 C 7.667969 21.5 9.039062 21.515625 10.449219 21.53125 C 10.449219 21.21875 10.445312 20.902344 10.445312 20.582031 C 10.441406 20.378906 10.441406 20.179688 10.441406 19.980469 C 10.441406 19.664062 10.441406 19.347656 10.4375 19.027344 C 10.4375 18.773438 10.4375 18.515625 10.433594 18.261719 C 10.433594 18.164062 10.433594 18.066406 10.433594 17.96875 C 10.425781 17.171875 10.476562 16.496094 11.046875 15.882812 C 11.539062 15.417969 12.050781 15.300781 12.707031 15.3125 C 13.25 15.34375 13.707031 15.636719 14.070312 16.027344 C 14.425781 16.460938 14.566406 16.941406 14.5625 17.492188 C 14.5625 17.535156 14.5625 17.578125 14.5625 17.625 C 14.5625 17.769531 14.5625 17.914062 14.558594 18.058594 C 14.558594 18.15625 14.558594 18.257812 14.558594 18.359375 C 14.558594 18.621094 14.558594 18.882812 14.558594 19.148438 C 14.554688 19.414062 14.554688 19.683594 14.554688 19.953125 C 14.554688 20.480469 14.554688 21.007812 14.550781 21.53125 C 15.058594 21.53125 15.570312 21.527344 16.078125 21.523438 C 16.3125 21.523438 16.550781 21.519531 16.785156 21.519531 C 17.015625 21.519531 17.242188 21.515625 17.472656 21.515625 C 17.558594 21.515625 17.644531 21.515625 17.730469 21.515625 C 17.855469 21.515625 17.976562 21.511719 18.097656 21.511719 C 18.132812 21.511719 18.167969 21.511719 18.207031 21.511719 C 18.496094 21.507812 18.753906 21.421875 18.972656 21.21875 C 19.183594 20.976562 19.25 20.761719 19.25 20.445312 C 19.253906 20.382812 19.253906 20.320312 19.253906 20.257812 C 19.253906 20.1875 19.253906 20.121094 19.253906 20.050781 C 19.253906 19.980469 19.253906 19.90625 19.253906 19.835938 C 19.257812 19.640625 19.257812 19.445312 19.257812 19.25 C 19.257812 19.042969 19.261719 18.839844 19.261719 18.632812 C 19.261719 18.246094 19.265625 17.859375 19.265625 17.472656 C 19.269531 17.03125 19.269531 16.589844 19.273438 16.148438 C 19.277344 15.242188 19.28125 14.335938 19.289062 13.429688 C 19.335938 13.425781 19.386719 13.425781 19.4375 13.425781 C 19.621094 13.425781 19.808594 13.421875 19.992188 13.421875 C 20.074219 13.417969 20.152344 13.417969 20.234375 13.417969 C 20.878906 13.425781 20.878906 13.425781 21.4375 13.132812 C 21.636719 12.886719 21.742188 12.648438 21.738281 12.328125 C 21.738281 12.285156 21.738281 12.238281 21.738281 12.191406 C 21.730469 12.0625 21.707031 11.941406 21.679688 11.816406 Z M 21.679688 11.816406 "/>
<path style=" stroke:none;fill-rule:nonzero;fill:rgb(18.823529%,40.784314%,60%);fill-opacity:1;" d="M 3.808594 13.378906 C 3.871094 13.390625 3.871094 13.390625 3.933594 13.402344 C 4.113281 13.429688 4.289062 13.4375 4.472656 13.441406 C 4.566406 13.445312 4.566406 13.445312 4.660156 13.449219 C 4.742188 13.449219 4.820312 13.453125 4.902344 13.457031 C 5.277344 13.464844 5.277344 13.464844 5.664062 13.476562 C 5.664062 14.054688 5.664062 14.636719 5.664062 15.234375 C 5.28125 14.90625 5.28125 14.90625 5.144531 14.769531 C 5.113281 14.738281 5.082031 14.710938 5.054688 14.679688 C 5.019531 14.648438 4.988281 14.617188 4.957031 14.582031 C 4.925781 14.550781 4.890625 14.515625 4.859375 14.484375 C 4.789062 14.414062 4.71875 14.34375 4.648438 14.273438 C 4.542969 14.167969 4.4375 14.0625 4.328125 13.957031 C 4.261719 13.886719 4.195312 13.820312 4.128906 13.753906 C 4.09375 13.722656 4.0625 13.6875 4.03125 13.65625 C 3.808594 13.433594 3.808594 13.433594 3.808594 13.378906 Z M 3.808594 13.378906 "/>
</g>
</svg>
