<?xml version="1.0" encoding="UTF-8"?>
<svg xmlns="http://www.w3.org/2000/svg" xmlns:xlink="http://www.w3.org/1999/xlink" width="25px" height="25px" viewBox="0 0 25 25" version="1.1">
<g id="surface1">
<path style=" stroke:none;fill-rule:nonzero;fill:rgb(99.607843%,99.607843%,99.607843%);fill-opacity:1;" d="M 12.464844 0.273438 C 12.535156 0.273438 12.535156 0.273438 12.605469 0.273438 C 13.796875 0.277344 14.921875 0.433594 16.0625 0.78125 C 16.105469 0.792969 16.144531 0.804688 16.1875 0.820312 C 17.972656 1.367188 19.554688 2.382812 20.898438 3.660156 C 20.941406 3.703125 20.941406 3.703125 20.980469 3.742188 C 21.402344 4.144531 21.773438 4.5625 22.117188 5.027344 C 22.140625 5.058594 22.160156 5.085938 22.183594 5.113281 C 22.5 5.539062 22.78125 5.984375 23.046875 6.445312 C 23.078125 6.5 23.109375 6.554688 23.144531 6.613281 C 24.691406 9.371094 24.921875 12.746094 24.085938 15.757812 C 23.738281 16.941406 23.195312 18.148438 22.460938 19.140625 C 22.441406 19.167969 22.417969 19.199219 22.398438 19.230469 C 21.703125 20.1875 20.917969 21.164062 19.921875 21.828125 C 19.867188 21.988281 19.863281 22.117188 19.859375 22.285156 C 19.804688 23.03125 19.519531 23.648438 18.976562 24.167969 C 18.511719 24.53125 17.96875 24.722656 17.382812 24.71875 C 17.316406 24.71875 17.316406 24.71875 17.25 24.722656 C 17.105469 24.722656 16.960938 24.722656 16.816406 24.722656 C 16.710938 24.722656 16.609375 24.722656 16.503906 24.722656 C 16.222656 24.722656 15.941406 24.722656 15.65625 24.722656 C 15.480469 24.722656 15.304688 24.722656 15.128906 24.722656 C 14.511719 24.726562 13.898438 24.726562 13.28125 24.726562 C 12.707031 24.726562 12.132812 24.726562 11.5625 24.726562 C 11.066406 24.730469 10.574219 24.730469 10.082031 24.730469 C 9.789062 24.730469 9.496094 24.730469 9.199219 24.730469 C 8.921875 24.730469 8.648438 24.730469 8.371094 24.730469 C 8.269531 24.730469 8.167969 24.730469 8.066406 24.730469 C 7.214844 24.734375 6.519531 24.621094 5.875 24.015625 C 5.367188 23.480469 5.175781 22.886719 5.136719 22.160156 C 5.125 21.921875 5.125 21.921875 4.988281 21.742188 C 4.949219 21.710938 4.910156 21.683594 4.867188 21.652344 C 4.214844 21.152344 3.632812 20.566406 3.125 19.921875 C 3.089844 19.875 3.089844 19.875 3.050781 19.828125 C 2.679688 19.359375 2.339844 18.886719 2.050781 18.359375 C 2.027344 18.316406 2.003906 18.277344 1.980469 18.234375 C 1.621094 17.578125 1.3125 16.917969 1.074219 16.210938 C 1.0625 16.171875 1.046875 16.132812 1.035156 16.09375 C 0.0117188 13.054688 0.316406 9.6875 1.730469 6.828125 C 2.054688 6.199219 2.445312 5.589844 2.882812 5.027344 C 2.910156 4.988281 2.941406 4.949219 2.972656 4.910156 C 3.234375 4.574219 3.515625 4.261719 3.808594 3.953125 C 3.835938 3.925781 3.863281 3.894531 3.894531 3.867188 C 4.308594 3.433594 4.742188 3.042969 5.226562 2.6875 C 5.253906 2.664062 5.28125 2.644531 5.308594 2.625 C 6.867188 1.453125 8.71875 0.683594 10.644531 0.390625 C 10.730469 0.378906 10.730469 0.378906 10.816406 0.363281 C 11.367188 0.285156 11.910156 0.273438 12.464844 0.273438 Z M 12.464844 0.273438 "/>
<path style=" stroke:none;fill-rule:nonzero;fill:rgb(83.529412%,91.764706%,99.215686%);fill-opacity:1;" d="M 12.464844 0.273438 C 12.535156 0.273438 12.535156 0.273438 12.605469 0.273438 C 13.796875 0.277344 14.921875 0.433594 16.0625 0.78125 C 16.105469 0.792969 16.144531 0.804688 16.1875 0.820312 C 17.972656 1.367188 19.554688 2.382812 20.898438 3.660156 C 20.941406 3.703125 20.941406 3.703125 20.980469 3.742188 C 21.402344 4.144531 21.773438 4.5625 22.117188 5.027344 C 22.140625 5.058594 22.160156 5.085938 22.183594 5.113281 C 22.5 5.539062 22.78125 5.984375 23.046875 6.445312 C 23.078125 6.5 23.109375 6.554688 23.144531 6.613281 C 24.691406 9.371094 24.921875 12.746094 24.085938 15.757812 C 23.738281 16.941406 23.195312 18.148438 22.460938 19.140625 C 22.441406 19.167969 22.417969 19.199219 22.398438 19.230469 C 20.859375 21.347656 20.859375 21.347656 19.875 21.828125 C 19.871094 21.785156 19.871094 21.785156 19.871094 21.742188 C 19.851562 19.730469 19.851562 19.730469 19.679688 17.726562 C 19.671875 17.675781 19.671875 17.675781 19.664062 17.625 C 19.441406 15.867188 19.058594 14.113281 18.347656 12.484375 C 18.320312 12.425781 18.320312 12.425781 18.292969 12.363281 C 18.277344 12.328125 18.261719 12.292969 18.246094 12.257812 C 18.210938 12.15625 18.210938 12.15625 18.210938 11.960938 C 18.292969 11.886719 18.292969 11.886719 18.394531 11.820312 C 18.742188 11.574219 18.890625 11.296875 18.992188 10.890625 C 19.042969 10.503906 18.996094 10.199219 18.796875 9.863281 C 18.78125 9.832031 18.765625 9.800781 18.746094 9.769531 C 18.558594 9.464844 18.277344 9.335938 17.949219 9.214844 C 17.714844 9.167969 17.476562 9.148438 17.234375 9.132812 C 17.21875 9.0625 17.21875 9.0625 17.199219 8.996094 C 16.96875 8.238281 16.59375 7.660156 16.035156 7.101562 C 15.976562 7.039062 15.917969 6.976562 15.859375 6.914062 C 15.28125 6.300781 14.535156 5.855469 13.820312 5.417969 C 13.789062 5.402344 13.761719 5.382812 13.730469 5.367188 C 13.082031 4.925781 13.082031 4.925781 12.351562 4.785156 C 12.203125 4.847656 12.0625 4.921875 11.921875 5 C 11.878906 5.023438 11.835938 5.046875 11.796875 5.070312 C 10.878906 5.566406 10.003906 6.128906 9.226562 6.835938 C 9.203125 6.859375 9.179688 6.882812 9.152344 6.90625 C 8.492188 7.519531 7.988281 8.246094 7.765625 9.132812 C 7.714844 9.136719 7.667969 9.140625 7.621094 9.144531 C 7.125 9.199219 6.710938 9.277344 6.355469 9.65625 C 6.085938 9.996094 5.96875 10.304688 5.988281 10.738281 C 6.039062 11.140625 6.183594 11.5 6.492188 11.765625 C 6.605469 11.84375 6.714844 11.902344 6.835938 11.960938 C 6.777344 12.152344 6.707031 12.332031 6.636719 12.515625 C 6.058594 13.964844 5.628906 15.460938 5.4375 17.011719 C 5.417969 17.144531 5.402344 17.277344 5.382812 17.414062 C 5.371094 17.507812 5.355469 17.601562 5.34375 17.695312 C 5.339844 17.734375 5.332031 17.773438 5.328125 17.816406 C 5.199219 18.765625 5.160156 19.71875 5.144531 20.675781 C 5.144531 20.789062 5.140625 20.902344 5.140625 21.011719 C 5.136719 21.285156 5.128906 21.554688 5.125 21.828125 C 4.921875 21.707031 4.742188 21.570312 4.566406 21.417969 C 4.535156 21.390625 4.507812 21.367188 4.476562 21.339844 C 3.980469 20.90625 3.527344 20.441406 3.125 19.921875 C 3.074219 19.859375 3.023438 19.792969 2.972656 19.730469 C 2.628906 19.292969 2.320312 18.847656 2.050781 18.359375 C 2.027344 18.316406 2.003906 18.277344 1.980469 18.234375 C 1.621094 17.578125 1.3125 16.917969 1.074219 16.210938 C 1.0625 16.171875 1.046875 16.132812 1.035156 16.09375 C 0.0117188 13.054688 0.316406 9.6875 1.730469 6.828125 C 2.054688 6.199219 2.445312 5.589844 2.882812 5.027344 C 2.910156 4.988281 2.941406 4.949219 2.972656 4.910156 C 3.234375 4.574219 3.515625 4.261719 3.808594 3.953125 C 3.835938 3.925781 3.863281 3.894531 3.894531 3.867188 C 4.308594 3.433594 4.742188 3.042969 5.226562 2.6875 C 5.253906 2.664062 5.28125 2.644531 5.308594 2.625 C 6.867188 1.453125 8.71875 0.683594 10.644531 0.390625 C 10.730469 0.378906 10.730469 0.378906 10.816406 0.363281 C 11.367188 0.285156 11.910156 0.273438 12.464844 0.273438 Z M 12.464844 0.273438 "/>
<path style=" stroke:none;fill-rule:nonzero;fill:rgb(1.176471%,1.176471%,1.568627%);fill-opacity:1;" d="M 12.695312 4.785156 C 12.820312 4.835938 12.9375 4.890625 13.054688 4.953125 C 13.105469 4.980469 13.105469 4.980469 13.15625 5.003906 C 14.714844 5.816406 16.457031 6.945312 17.140625 8.640625 C 17.183594 8.804688 17.214844 8.964844 17.234375 9.132812 C 17.269531 9.128906 17.300781 9.128906 17.335938 9.125 C 17.835938 9.109375 18.214844 9.195312 18.605469 9.523438 C 18.902344 9.820312 19.042969 10.164062 19.0625 10.582031 C 19.050781 11.042969 18.90625 11.398438 18.59375 11.734375 C 18.347656 11.960938 18.347656 11.960938 18.210938 11.960938 C 18.230469 12.003906 18.246094 12.046875 18.261719 12.089844 C 18.328125 12.265625 18.394531 12.441406 18.457031 12.617188 C 18.492188 12.703125 18.523438 12.789062 18.554688 12.878906 C 19.207031 14.585938 19.574219 16.339844 19.765625 18.152344 C 19.773438 18.226562 19.78125 18.304688 19.789062 18.378906 C 19.867188 19.089844 19.886719 19.792969 19.882812 20.507812 C 19.882812 20.679688 19.882812 20.855469 19.882812 21.027344 C 19.878906 23.191406 19.878906 23.191406 19.089844 24.058594 C 18.628906 24.5 18.011719 24.722656 17.382812 24.71875 C 17.316406 24.71875 17.316406 24.71875 17.25 24.722656 C 17.105469 24.722656 16.960938 24.722656 16.816406 24.722656 C 16.710938 24.722656 16.609375 24.722656 16.503906 24.722656 C 16.222656 24.722656 15.941406 24.722656 15.65625 24.722656 C 15.480469 24.722656 15.304688 24.722656 15.128906 24.722656 C 14.511719 24.726562 13.898438 24.726562 13.28125 24.726562 C 12.707031 24.726562 12.132812 24.726562 11.5625 24.726562 C 11.066406 24.730469 10.574219 24.730469 10.082031 24.730469 C 9.789062 24.730469 9.496094 24.730469 9.199219 24.730469 C 8.921875 24.730469 8.648438 24.730469 8.371094 24.730469 C 8.269531 24.730469 8.167969 24.730469 8.066406 24.730469 C 7.214844 24.734375 6.519531 24.621094 5.875 24.015625 C 5.011719 23.105469 5.117188 21.929688 5.113281 20.761719 C 5.113281 20.703125 5.113281 20.644531 5.113281 20.582031 C 5.113281 19.652344 5.15625 18.746094 5.273438 17.820312 C 5.289062 17.695312 5.304688 17.570312 5.316406 17.441406 C 5.542969 15.582031 5.984375 13.644531 6.835938 11.960938 C 6.78125 11.941406 6.78125 11.941406 6.722656 11.921875 C 6.378906 11.773438 6.207031 11.53125 6.050781 11.199219 C 5.917969 10.859375 5.894531 10.496094 6.007812 10.144531 C 6.226562 9.675781 6.546875 9.371094 7.03125 9.179688 C 7.191406 9.128906 7.339844 9.125 7.507812 9.128906 C 7.554688 9.128906 7.601562 9.128906 7.652344 9.128906 C 7.691406 9.128906 7.726562 9.128906 7.765625 9.132812 C 7.765625 9.105469 7.769531 9.078125 7.773438 9.046875 C 7.957031 7.851562 9.015625 6.875 9.9375 6.183594 C 10.640625 5.667969 11.386719 5.238281 12.15625 4.835938 C 12.191406 4.816406 12.226562 4.796875 12.261719 4.777344 C 12.414062 4.710938 12.535156 4.75 12.695312 4.785156 Z M 6.761719 10.242188 C 6.640625 10.503906 6.648438 10.730469 6.746094 11 C 6.933594 11.273438 7.160156 11.367188 7.460938 11.476562 C 7.570312 11.523438 7.570312 11.523438 7.664062 11.621094 C 7.65625 11.929688 7.53125 12.171875 7.402344 12.445312 C 6.539062 14.375 6.074219 16.476562 5.917969 18.582031 C 5.910156 18.664062 5.902344 18.75 5.894531 18.832031 C 5.847656 19.351562 5.851562 19.863281 5.851562 20.382812 C 5.851562 20.429688 5.855469 20.476562 5.855469 20.527344 C 5.855469 20.804688 5.855469 21.085938 5.859375 21.363281 C 5.859375 21.46875 5.859375 21.574219 5.859375 21.679688 C 5.863281 22.207031 5.875 22.675781 6.152344 23.144531 C 6.171875 23.179688 6.195312 23.21875 6.214844 23.253906 C 6.453125 23.621094 6.859375 23.859375 7.273438 23.976562 C 7.417969 23.988281 7.558594 23.988281 7.703125 23.988281 C 7.765625 23.988281 7.765625 23.988281 7.832031 23.988281 C 7.972656 23.988281 8.113281 23.988281 8.253906 23.988281 C 8.355469 23.988281 8.457031 23.988281 8.558594 23.988281 C 8.835938 23.992188 9.113281 23.992188 9.386719 23.992188 C 9.558594 23.992188 9.734375 23.992188 9.90625 23.992188 C 10.507812 23.992188 11.109375 23.992188 11.710938 23.992188 C 12.273438 23.992188 12.832031 23.992188 13.394531 23.996094 C 13.875 23.996094 14.355469 23.996094 14.839844 23.996094 C 15.125 23.996094 15.414062 23.996094 15.703125 24 C 15.972656 24 16.242188 24 16.515625 24 C 16.613281 24 16.710938 24 16.8125 24 C 17.480469 24.003906 18.097656 23.984375 18.601562 23.484375 C 19.28125 22.667969 19.152344 21.613281 19.152344 20.613281 C 19.152344 20.554688 19.152344 20.492188 19.152344 20.433594 C 19.152344 19.503906 19.117188 18.597656 18.992188 17.675781 C 18.984375 17.613281 18.976562 17.550781 18.96875 17.488281 C 18.738281 15.679688 18.273438 13.910156 17.503906 12.257812 C 17.480469 12.207031 17.457031 12.160156 17.4375 12.113281 C 17.40625 12.046875 17.40625 12.046875 17.375 11.984375 C 17.328125 11.855469 17.320312 11.757812 17.335938 11.621094 C 17.472656 11.46875 17.609375 11.410156 17.800781 11.351562 C 18.035156 11.28125 18.152344 11.191406 18.273438 10.972656 C 18.34375 10.71875 18.332031 10.515625 18.253906 10.265625 C 18.125 10.039062 17.96875 9.945312 17.726562 9.863281 C 17.585938 9.859375 17.449219 9.855469 17.3125 9.855469 C 17.269531 9.855469 17.226562 9.855469 17.183594 9.855469 C 17.042969 9.855469 16.898438 9.855469 16.753906 9.855469 C 16.652344 9.851562 16.550781 9.851562 16.449219 9.851562 C 16.113281 9.851562 15.773438 9.851562 15.4375 9.851562 C 15.324219 9.851562 15.207031 9.847656 15.089844 9.847656 C 14.609375 9.847656 14.128906 9.847656 13.644531 9.847656 C 12.953125 9.847656 12.265625 9.84375 11.574219 9.839844 C 11.089844 9.839844 10.601562 9.839844 10.117188 9.839844 C 9.828125 9.839844 9.539062 9.835938 9.246094 9.835938 C 8.972656 9.835938 8.703125 9.835938 8.429688 9.835938 C 8.328125 9.835938 8.230469 9.835938 8.128906 9.832031 C 7.992188 9.832031 7.855469 9.832031 7.71875 9.832031 C 7.679688 9.832031 7.640625 9.832031 7.597656 9.832031 C 7.242188 9.835938 7 9.980469 6.761719 10.242188 Z M 6.761719 10.242188 "/>
<path style=" stroke:none;fill-rule:nonzero;fill:rgb(0.784314%,0.784314%,0.784314%);fill-opacity:1;" d="M 14.695312 12.402344 C 14.816406 12.472656 14.816406 12.472656 14.890625 12.597656 C 14.917969 12.746094 14.914062 12.894531 14.910156 13.042969 C 14.910156 13.085938 14.910156 13.128906 14.910156 13.175781 C 14.910156 13.3125 14.90625 13.449219 14.90625 13.585938 C 14.902344 13.679688 14.902344 13.773438 14.902344 13.867188 C 14.898438 14.09375 14.898438 14.324219 14.890625 14.550781 C 14.980469 14.550781 14.980469 14.550781 15.070312 14.546875 C 15.285156 14.542969 15.5 14.542969 15.714844 14.539062 C 15.808594 14.539062 15.902344 14.539062 15.996094 14.535156 C 16.128906 14.535156 16.265625 14.53125 16.398438 14.53125 C 16.441406 14.53125 16.484375 14.53125 16.527344 14.527344 C 16.707031 14.527344 16.816406 14.53125 16.972656 14.628906 C 17.046875 14.757812 17.058594 14.839844 17.03125 14.988281 C 16.941406 15.214844 16.742188 15.375 16.570312 15.542969 C 16.527344 15.585938 16.484375 15.632812 16.4375 15.675781 C 16.316406 15.796875 16.195312 15.917969 16.074219 16.039062 C 15.945312 16.164062 15.820312 16.289062 15.691406 16.417969 C 15.480469 16.628906 15.265625 16.839844 15.054688 17.050781 C 14.753906 17.347656 14.453125 17.648438 14.152344 17.945312 C 13.917969 18.179688 13.6875 18.410156 13.453125 18.644531 C 13.425781 18.667969 13.402344 18.691406 13.375 18.71875 C 13.210938 18.882812 13.042969 19.046875 12.878906 19.210938 C 12.835938 19.253906 12.792969 19.296875 12.75 19.339844 C 12.710938 19.375 12.675781 19.414062 12.636719 19.453125 C 12.601562 19.484375 12.566406 19.519531 12.535156 19.554688 C 12.402344 19.675781 12.320312 19.683594 12.144531 19.683594 C 12.082031 19.683594 12.082031 19.683594 12.015625 19.683594 C 11.96875 19.683594 11.921875 19.683594 11.875 19.683594 C 11.828125 19.683594 11.777344 19.683594 11.730469 19.683594 C 11.578125 19.683594 11.425781 19.679688 11.273438 19.679688 C 11.171875 19.679688 11.066406 19.679688 10.964844 19.679688 C 10.710938 19.679688 10.457031 19.679688 10.203125 19.679688 C 10.183594 19.722656 10.183594 19.722656 10.164062 19.765625 C 10.105469 19.875 10.046875 19.945312 9.957031 20.035156 C 9.929688 20.0625 9.898438 20.09375 9.867188 20.125 C 9.835938 20.15625 9.804688 20.1875 9.769531 20.222656 C 9.738281 20.253906 9.703125 20.289062 9.667969 20.320312 C 9.597656 20.390625 9.527344 20.460938 9.457031 20.53125 C 9.351562 20.640625 9.242188 20.746094 9.136719 20.855469 C 9.066406 20.921875 9 20.988281 8.929688 21.058594 C 8.882812 21.105469 8.882812 21.105469 8.832031 21.15625 C 8.804688 21.183594 8.773438 21.214844 8.742188 21.246094 C 8.703125 21.285156 8.703125 21.285156 8.664062 21.324219 C 8.546875 21.425781 8.488281 21.4375 8.332031 21.449219 C 8.15625 21.4375 8.15625 21.4375 8.035156 21.355469 C 7.929688 21.199219 7.925781 21.132812 7.960938 20.945312 C 8.066406 20.804688 8.199219 20.6875 8.332031 20.570312 C 8.410156 20.496094 8.488281 20.421875 8.5625 20.347656 C 8.6875 20.230469 8.808594 20.117188 8.933594 20.003906 C 9.054688 19.894531 9.171875 19.78125 9.289062 19.667969 C 9.328125 19.636719 9.363281 19.601562 9.402344 19.570312 C 9.667969 19.308594 9.695312 19.109375 9.714844 18.746094 C 9.714844 18.558594 9.707031 18.375 9.695312 18.1875 C 9.664062 17.5625 9.652344 17.042969 10.058594 16.53125 C 10.261719 16.3125 10.46875 16.109375 10.6875 15.90625 C 10.816406 15.785156 10.941406 15.660156 11.070312 15.535156 C 11.28125 15.324219 11.496094 15.117188 11.710938 14.914062 C 12.015625 14.625 12.316406 14.332031 12.617188 14.035156 C 12.824219 13.832031 13.035156 13.628906 13.242188 13.425781 C 13.292969 13.375 13.34375 13.328125 13.394531 13.277344 C 13.5625 13.117188 13.726562 12.957031 13.894531 12.800781 C 13.9375 12.757812 13.980469 12.71875 14.023438 12.675781 C 14.382812 12.339844 14.382812 12.339844 14.695312 12.402344 Z M 14.695312 12.402344 "/>
<path style=" stroke:none;fill-rule:nonzero;fill:rgb(29.019608%,56.470588%,94.901961%);fill-opacity:1;" d="M 12.820312 5.621094 C 12.859375 5.644531 12.898438 5.667969 12.941406 5.6875 C 13.007812 5.726562 13.007812 5.726562 13.078125 5.765625 C 13.148438 5.808594 13.148438 5.808594 13.222656 5.851562 C 13.296875 5.894531 13.296875 5.894531 13.375 5.9375 C 13.816406 6.195312 14.238281 6.476562 14.648438 6.785156 C 14.695312 6.824219 14.742188 6.859375 14.792969 6.894531 C 15.445312 7.40625 16.195312 8.070312 16.453125 8.886719 C 16.453125 8.96875 16.453125 9.046875 16.453125 9.128906 C 13.828125 9.128906 11.203125 9.128906 8.496094 9.128906 C 8.6875 8.492188 8.96875 8.089844 9.421875 7.617188 C 9.464844 7.574219 9.503906 7.53125 9.542969 7.488281 C 10.1875 6.8125 10.972656 6.332031 11.765625 5.859375 C 11.800781 5.839844 11.835938 5.820312 11.871094 5.796875 C 12.441406 5.453125 12.441406 5.453125 12.820312 5.621094 Z M 12.820312 5.621094 "/>
<path style=" stroke:none;fill-rule:nonzero;fill:rgb(43.921569%,42.745098%,42.745098%);fill-opacity:1;" d="M 11.179688 16.648438 C 11.289062 17.574219 11.289062 17.574219 11.117188 17.894531 C 10.9375 18.117188 10.730469 18.292969 10.5 18.457031 C 10.480469 18.457031 10.464844 18.457031 10.449219 18.457031 C 10.339844 17.53125 10.339844 17.53125 10.515625 17.214844 C 10.640625 17.054688 10.964844 16.648438 11.179688 16.648438 Z M 11.179688 16.648438 "/>
<path style=" stroke:none;fill-rule:nonzero;fill:rgb(44.705882%,43.529412%,43.529412%);fill-opacity:1;" d="M 14.160156 13.671875 C 14.269531 14.6875 14.269531 14.6875 14.023438 15.011719 C 13.871094 15.171875 13.710938 15.308594 13.523438 15.429688 C 13.492188 15.429688 13.460938 15.429688 13.429688 15.429688 C 13.320312 14.550781 13.320312 14.550781 13.492188 14.238281 C 13.945312 13.671875 13.945312 13.671875 14.160156 13.671875 Z M 14.160156 13.671875 "/>
<path style=" stroke:none;fill-rule:nonzero;fill:rgb(45.098039%,43.921569%,43.921569%);fill-opacity:1;" d="M 12.253906 18.1875 C 12.332031 18.191406 12.332031 18.191406 12.410156 18.195312 C 12.539062 18.199219 12.664062 18.203125 12.792969 18.210938 C 12.792969 18.246094 12.792969 18.277344 12.792969 18.3125 C 12.71875 18.382812 12.71875 18.382812 12.617188 18.46875 C 12.46875 18.589844 12.46875 18.589844 12.34375 18.726562 C 12.234375 18.863281 12.160156 18.9375 11.984375 18.96875 C 11.839844 18.972656 11.699219 18.972656 11.554688 18.964844 C 11.503906 18.960938 11.453125 18.960938 11.402344 18.960938 C 11.28125 18.957031 11.15625 18.953125 11.035156 18.945312 C 11.105469 18.863281 11.171875 18.785156 11.242188 18.707031 C 11.328125 18.605469 11.328125 18.605469 11.402344 18.496094 C 11.644531 18.164062 11.863281 18.164062 12.253906 18.1875 Z M 12.253906 18.1875 "/>
<path style=" stroke:none;fill-rule:nonzero;fill:rgb(44.705882%,43.921569%,43.921569%);fill-opacity:1;" d="M 13.71875 16.722656 C 13.796875 16.726562 13.796875 16.726562 13.875 16.730469 C 14.003906 16.734375 14.128906 16.738281 14.257812 16.75 C 14.1875 16.828125 14.121094 16.910156 14.050781 16.988281 C 13.964844 17.089844 13.964844 17.089844 13.890625 17.199219 C 13.773438 17.359375 13.691406 17.464844 13.492188 17.511719 C 13.339844 17.519531 13.191406 17.515625 13.039062 17.503906 C 12.988281 17.503906 12.9375 17.5 12.882812 17.5 C 12.753906 17.496094 12.628906 17.488281 12.5 17.480469 C 12.570312 17.398438 12.636719 17.320312 12.707031 17.242188 C 12.792969 17.140625 12.792969 17.140625 12.867188 17.03125 C 13.109375 16.699219 13.328125 16.699219 13.71875 16.722656 Z M 13.71875 16.722656 "/>
<path style=" stroke:none;fill-rule:nonzero;fill:rgb(45.098039%,43.921569%,43.921569%);fill-opacity:1;" d="M 15.722656 15.28125 C 15.652344 15.363281 15.585938 15.445312 15.515625 15.523438 C 15.429688 15.625 15.429688 15.625 15.355469 15.734375 C 15.238281 15.894531 15.15625 16 14.957031 16.046875 C 14.804688 16.054688 14.65625 16.050781 14.503906 16.039062 C 14.453125 16.039062 14.402344 16.035156 14.347656 16.035156 C 14.21875 16.03125 14.09375 16.023438 13.964844 16.015625 C 13.984375 15.992188 14.003906 15.972656 14.023438 15.949219 C 14.1875 15.757812 14.1875 15.757812 14.335938 15.554688 C 14.644531 15.121094 15.25 15.25 15.722656 15.28125 Z M 15.722656 15.28125 "/>
<path style=" stroke:none;fill-rule:nonzero;fill:rgb(45.098039%,43.921569%,43.921569%);fill-opacity:1;" d="M 12.648438 15.1875 C 12.75 16.210938 12.75 16.210938 12.519531 16.511719 C 12.378906 16.664062 12.230469 16.785156 12.0625 16.894531 C 12.027344 16.894531 11.996094 16.894531 11.960938 16.894531 C 11.851562 15.925781 11.851562 15.925781 12.101562 15.609375 C 12.5 15.1875 12.5 15.1875 12.648438 15.1875 Z M 12.648438 15.1875 "/>
</g>
</svg>
