<?xml version="1.0" encoding="UTF-8"?>
<svg xmlns="http://www.w3.org/2000/svg" xmlns:xlink="http://www.w3.org/1999/xlink" width="45px" height="45px" viewBox="0 0 45 45" version="1.1">
<g id="surface1">
<path style=" stroke:none;fill-rule:nonzero;fill:rgb(0%,0%,0%);fill-opacity:1;" d="M 12.128906 0.0507812 C 8.480469 0.226562 7.671875 0.332031 6.875 0.738281 C 5.984375 1.195312 5.371094 2.074219 5.300781 3.03125 C 5.222656 4.015625 5.597656 4.773438 6.453125 5.316406 L 6.917969 5.617188 L 5.960938 8.980469 C 3.734375 16.777344 2.53125 22.21875 1.898438 27.289062 C 1.539062 30.136719 1.46875 31.21875 1.460938 33.398438 C 1.460938 35.191406 1.476562 35.578125 1.644531 36.316406 C 2.339844 39.460938 4.367188 41.160156 8.480469 42.011719 C 12.253906 42.792969 17.984375 43.222656 23.273438 43.117188 L 26.210938 43.066406 L 26.746094 43.382812 C 28.539062 44.4375 31.332031 45.089844 33.53125 44.964844 C 36.007812 44.824219 38.011719 44.121094 39.839844 42.75 C 42.152344 41.019531 43.460938 38.566406 43.648438 35.613281 C 43.707031 34.628906 43.613281 34.144531 43.277344 33.8125 C 43.003906 33.53125 42.777344 33.496094 42.300781 33.625 L 41.925781 33.730469 L 41.976562 33.265625 C 42.125 31.992188 41.300781 30.761719 40.085938 30.472656 L 39.664062 30.375 L 39.746094 30.015625 C 39.929688 29.230469 39.578125 28.175781 38.988281 27.730469 C 38.621094 27.449219 37.882812 27.15625 37.539062 27.15625 C 37.285156 27.15625 37.1875 27 37.179688 26.585938 C 37.179688 26.3125 36.792969 25.558594 36.464844 25.1875 C 36.113281 24.785156 35.65625 24.484375 35.175781 24.335938 L 34.804688 24.230469 L 34.804688 23.125 C 34.804688 21.875 34.613281 19.34375 34.417969 17.886719 C 33.910156 14.132812 32.863281 10.308594 31.394531 6.8125 C 30.945312 5.738281 30.929688 5.667969 31.078125 5.582031 C 31.175781 5.535156 31.429688 5.308594 31.648438 5.089844 C 31.964844 4.773438 32.082031 4.578125 32.152344 4.246094 C 32.335938 3.417969 31.949219 2.503906 31.097656 1.714844 C 30.542969 1.203125 29.996094 0.976562 28.890625 0.789062 C 28.371094 0.710938 24.285156 0.367188 21.488281 0.175781 C 20.164062 0.078125 13.351562 -0.0078125 12.128906 0.0507812 Z M 21.402344 1.054688 C 26.261719 1.386719 28.890625 1.644531 29.566406 1.84375 C 30.851562 2.242188 31.710938 3.613281 31.148438 4.367188 C 30.859375 4.753906 30.488281 4.921875 29.699219 5.007812 C 29.269531 5.0625 24.714844 5.097656 18.765625 5.097656 C 7.707031 5.097656 7.804688 5.097656 6.988281 4.613281 C 6.476562 4.324219 6.222656 3.9375 6.171875 3.425781 C 6.074219 2.40625 6.757812 1.589844 7.980469 1.273438 C 8.421875 1.160156 9.949219 1.035156 12.261719 0.929688 C 13.554688 0.878906 20.066406 0.957031 21.402344 1.054688 Z M 30.542969 7.046875 C 32.414062 11.488281 33.496094 16.066406 33.839844 21.050781 C 33.890625 21.824219 33.925781 22.867188 33.910156 23.371094 L 33.882812 24.292969 L 33.617188 24.363281 C 32.976562 24.53125 31.964844 25.347656 31.800781 25.839844 C 31.773438 25.917969 31.625 25.902344 31.246094 25.796875 C 30.148438 25.46875 28.75 25.855469 28.082031 26.664062 C 27.597656 27.253906 27.394531 27.808594 27.351562 28.632812 C 27.308594 29.441406 27.371094 29.382812 26.457031 29.488281 C 25.734375 29.566406 24.785156 30.066406 24.265625 30.636719 C 23.773438 31.175781 23.335938 32.027344 23.246094 32.617188 C 23.195312 32.96875 23.152344 33.027344 22.914062 33.097656 C 22.421875 33.25 22.28125 33.566406 22.289062 34.480469 C 22.296875 34.925781 22.367188 35.78125 22.449219 36.386719 C 22.773438 38.882812 23.308594 40.246094 24.53125 41.667969 L 24.953125 42.160156 L 24.285156 42.222656 C 23.300781 42.300781 19.890625 42.285156 17.886719 42.1875 C 13.367188 41.96875 9.140625 41.394531 7.03125 40.738281 C 4.632812 39.980469 3.101562 38.53125 2.59375 36.519531 C 2.152344 34.785156 2.207031 32.007812 2.769531 27.414062 C 3.402344 22.304688 4.429688 17.648438 6.777344 9.359375 L 7.742188 5.933594 L 18.914062 5.949219 L 30.085938 5.976562 Z M 35.234375 25.3125 C 35.957031 25.679688 36.335938 26.367188 36.316406 27.308594 C 36.316406 27.710938 36.351562 27.964844 36.414062 28.011719 C 36.476562 28.054688 36.835938 28.082031 37.222656 28.082031 C 37.8125 28.082031 37.976562 28.117188 38.269531 28.292969 C 38.953125 28.722656 39.113281 29.6875 38.628906 30.425781 C 38.382812 30.789062 38.347656 31.042969 38.523438 31.183594 C 38.574219 31.226562 38.945312 31.28125 39.339844 31.296875 C 40.613281 31.359375 41.082031 31.878906 41.089844 33.238281 L 41.089844 33.996094 L 39.859375 34.269531 C 37.203125 34.839844 35.9375 34.980469 33.496094 34.980469 C 30.296875 34.980469 26.957031 34.410156 24.820312 33.511719 L 24.066406 33.1875 L 24.117188 32.808594 C 24.214844 32.054688 24.769531 31.199219 25.417969 30.789062 C 26.035156 30.402344 26.4375 30.304688 27.394531 30.3125 C 28.214844 30.3125 28.308594 30.296875 28.390625 30.136719 C 28.46875 30.003906 28.449219 29.855469 28.335938 29.511719 C 28.160156 28.976562 28.195312 28.222656 28.433594 27.738281 C 28.960938 26.628906 30.3125 26.234375 31.484375 26.851562 C 32.089844 27.167969 32.292969 27.105469 32.476562 26.550781 C 32.644531 26.042969 33.109375 25.53125 33.609375 25.304688 C 34.09375 25.082031 34.804688 25.09375 35.234375 25.3125 Z M 24.441406 34.320312 C 26.035156 34.972656 28.53125 35.542969 30.804688 35.769531 C 32.238281 35.921875 36.195312 35.839844 37.441406 35.640625 C 38.734375 35.4375 41.035156 34.9375 41.914062 34.664062 C 42.3125 34.539062 42.671875 34.46875 42.707031 34.496094 C 42.792969 34.59375 42.75 36.121094 42.636719 36.695312 C 41.976562 40 39.699219 42.484375 36.308594 43.59375 C 35.21875 43.945312 34.320312 44.066406 32.871094 44.058594 C 30.929688 44.050781 29.304688 43.664062 27.546875 42.792969 C 25.25 41.652344 24.003906 40 23.519531 37.441406 C 23.34375 36.542969 23.097656 34.117188 23.160156 34.011719 C 23.246094 33.863281 23.449219 33.917969 24.441406 34.320312 Z M 24.441406 34.320312 "/>
<path style=" stroke:none;fill-rule:nonzero;fill:rgb(0%,0%,0%);fill-opacity:1;" d="M 20.066406 9.289062 C 19.601562 9.957031 19.320312 10.519531 19.019531 11.417969 L 18.765625 12.164062 L 18.652344 11.722656 C 18.324219 10.503906 17.886719 9.167969 17.773438 9.027344 C 17.621094 8.851562 17.304688 8.832031 17.15625 8.980469 C 17 9.140625 17.023438 9.414062 17.324219 10.34375 C 17.578125 11.125 18.027344 12.847656 18.019531 12.988281 C 18.007812 13.023438 17.894531 12.917969 17.761719 12.761719 C 17.570312 12.53125 17.457031 12.472656 17.261719 12.496094 C 16.707031 12.558594 15.855469 14.933594 15.757812 16.65625 C 15.734375 17.164062 15.664062 17.585938 15.601562 17.664062 C 15.371094 17.9375 14.589844 21.3125 14.589844 22.042969 C 14.589844 22.246094 14.519531 22.394531 14.371094 22.527344 C 14.152344 22.710938 14.140625 22.773438 14.046875 24.300781 C 13.835938 27.660156 13.921875 28.996094 14.46875 30.226562 C 14.835938 31.042969 15.820312 32.113281 16.585938 32.511719 C 16.691406 32.5625 17.007812 32.660156 17.289062 32.722656 C 17.773438 32.835938 17.796875 32.851562 17.78125 33.097656 C 17.761719 33.238281 17.632812 34.734375 17.480469 36.429688 C 17.332031 38.117188 17.226562 39.71875 17.253906 39.972656 C 17.367188 41.097656 18.289062 41.652344 19.257812 41.167969 C 19.589844 41 20.011719 40.480469 20.128906 40.105469 C 20.410156 39.101562 20.503906 34.277344 20.257812 33.003906 C 20.1875 32.625 20.136719 32.308594 20.152344 32.300781 C 20.164062 32.300781 20.390625 32.125 20.664062 31.929688 C 22.183594 30.804688 22.949219 28.960938 23.335938 25.488281 C 23.414062 24.785156 23.539062 23.898438 23.609375 23.519531 C 23.679688 23.132812 23.714844 22.746094 23.679688 22.65625 C 23.617188 22.464844 23.34375 22.304688 23.175781 22.375 C 23.0625 22.410156 23.054688 22.175781 23.097656 20.664062 C 23.160156 18.253906 22.964844 16.785156 22.554688 16.460938 C 22.386719 16.320312 22.324219 16.164062 22.246094 15.53125 C 22.078125 14.289062 21.382812 12.171875 21.03125 11.820312 C 20.804688 11.59375 20.566406 11.6875 19.925781 12.296875 L 19.589844 12.613281 L 19.652344 12.347656 C 19.828125 11.59375 20.445312 10.238281 20.867188 9.675781 C 21.234375 9.183594 21.136719 8.789062 20.644531 8.789062 C 20.460938 8.789062 20.347656 8.894531 20.066406 9.289062 Z M 20.867188 13.585938 C 21.148438 14.378906 21.359375 15.433594 21.417969 16.277344 C 21.472656 16.945312 21.472656 16.953125 21.136719 17.402344 C 20.960938 17.648438 20.785156 17.824219 20.761719 17.796875 C 20.734375 17.769531 20.636719 17.464844 20.550781 17.121094 C 20.363281 16.390625 19.996094 15.566406 19.609375 14.992188 C 19.460938 14.773438 19.335938 14.554688 19.335938 14.5 C 19.335938 14.308594 20.539062 12.867188 20.628906 12.953125 C 20.644531 12.964844 20.75 13.253906 20.867188 13.585938 Z M 18.140625 14.582031 C 19.125 15.6875 19.695312 16.910156 19.835938 18.238281 L 19.90625 18.851562 L 19.292969 19.785156 C 18.957031 20.292969 18.632812 20.785156 18.582031 20.882812 C 18.492188 21.03125 18.457031 21.003906 18.253906 20.601562 C 18.132812 20.355469 17.703125 19.730469 17.304688 19.203125 L 16.585938 18.253906 L 16.636719 17.101562 C 16.664062 16.46875 16.753906 15.695312 16.832031 15.378906 C 17.023438 14.597656 17.324219 13.789062 17.410156 13.816406 C 17.457031 13.832031 17.78125 14.175781 18.140625 14.582031 Z M 22.210938 19.433594 C 22.253906 20.8125 22.203125 21.71875 22.007812 22.824219 C 21.964844 23.035156 21.839844 23.183594 21.464844 23.449219 C 20.785156 23.921875 19.90625 24.730469 19.496094 25.25 L 19.160156 25.679688 L 19.160156 24.722656 C 19.160156 24.203125 19.125 23.535156 19.082031 23.238281 C 18.90625 22.035156 19.40625 20.917969 20.960938 19.070312 C 21.304688 18.660156 21.683594 18.191406 21.796875 18.035156 C 21.921875 17.867188 22.042969 17.789062 22.085938 17.832031 C 22.132812 17.875 22.183594 18.597656 22.210938 19.433594 Z M 16.726562 19.925781 C 17.394531 20.839844 17.78125 21.558594 17.972656 22.316406 C 18.167969 23.0625 18.289062 24.609375 18.230469 25.375 L 18.167969 26.007812 L 17.773438 25.460938 C 17.550781 25.164062 16.980469 24.519531 16.496094 24.046875 C 16.023438 23.5625 15.59375 23.070312 15.546875 22.957031 C 15.40625 22.597656 15.46875 21.875 15.734375 20.566406 C 15.875 19.863281 15.996094 19.265625 15.996094 19.222656 C 15.996094 19.027344 16.214844 19.238281 16.726562 19.925781 Z M 22.4375 25.328125 C 22.21875 27.121094 22.121094 27.667969 21.886719 28.433594 C 21.410156 30.015625 20.644531 31.015625 19.476562 31.613281 C 19.097656 31.808594 19.054688 31.816406 19.117188 31.667969 C 19.460938 30.832031 19.511719 29.875 19.285156 28.652344 C 19.144531 27.921875 19.144531 27.886719 19.328125 27.386719 C 19.742188 26.21875 20.59375 25.179688 21.929688 24.230469 C 22.316406 23.957031 22.632812 23.730469 22.640625 23.730469 C 22.640625 23.730469 22.554688 24.449219 22.4375 25.328125 Z M 16.910156 25.839844 C 17.480469 26.542969 18.027344 27.535156 18.300781 28.34375 C 18.597656 29.257812 18.589844 30.628906 18.28125 31.246094 C 18.160156 31.480469 17.957031 31.738281 17.832031 31.808594 C 17.632812 31.921875 17.550781 31.921875 17.210938 31.789062 C 16.71875 31.597656 15.804688 30.789062 15.503906 30.269531 C 14.925781 29.277344 14.730469 27.90625 14.863281 25.707031 C 14.996094 23.652344 14.914062 23.746094 15.75 24.574219 C 16.136719 24.953125 16.664062 25.523438 16.910156 25.839844 Z M 19.425781 33.460938 C 19.574219 34.515625 19.484375 38.945312 19.300781 39.636719 C 19.089844 40.429688 18.476562 40.703125 18.203125 40.121094 C 18.089844 39.894531 18.105469 39.496094 18.359375 36.648438 C 18.519531 34.882812 18.667969 33.292969 18.695312 33.117188 C 18.738281 32.800781 18.800781 32.757812 19.214844 32.703125 C 19.285156 32.703125 19.363281 32.992188 19.425781 33.460938 Z M 19.425781 33.460938 "/>
</g>
</svg>
