<?xml version="1.0" encoding="UTF-8"?>
<svg version="1.1" xmlns="http://www.w3.org/2000/svg" width="43" height="43">
<path d="M0 0 C14.19 0 28.38 0 43 0 C43 14.19 43 28.38 43 43 C28.81 43 14.62 43 0 43 C0 28.81 0 14.62 0 0 Z " fill="#D9B6A2" transform="translate(0,0)"/>
<path d="M0 0 C4.39539905 3.78208756 8.27074456 7.46605229 8.92578125 13.51171875 C9.11013086 19.69228199 8.31871327 24.2193697 4.6875 29.3125 C0.35970852 33.52932247 -3.68541746 35.39102051 -9.6875 35.625 C-14.91599588 35.4689255 -19.04949827 34.33540899 -23.04296875 30.765625 C-26.40611768 27.15483327 -28.06465534 24.39331556 -28.3125 19.3125 C-26.9925 19.3125 -25.6725 19.3125 -24.3125 19.3125 C-24.3125 18.6525 -24.3125 17.9925 -24.3125 17.3125 C-20.5625 16.1875 -20.5625 16.1875 -18.3125 17.3125 C-18.3125 18.3025 -18.3125 19.2925 -18.3125 20.3125 C-16.9925 19.9825 -15.6725 19.6525 -14.3125 19.3125 C-14.6425 18.6525 -14.9725 17.9925 -15.3125 17.3125 C-11.3525 16.9825 -7.3925 16.6525 -3.3125 16.3125 C-3.3125 16.9725 -3.3125 17.6325 -3.3125 18.3125 C-4.9625 18.6425 -6.6125 18.9725 -8.3125 19.3125 C-8.3125 19.9725 -8.3125 20.6325 -8.3125 21.3125 C-7.3225 20.9825 -6.3325 20.6525 -5.3125 20.3125 C-4.3225 20.6425 -3.3325 20.9725 -2.3125 21.3125 C-2.209375 20.673125 -2.10625 20.03375 -2 19.375 C-1.773125 18.694375 -1.54625 18.01375 -1.3125 17.3125 C-0.3225 16.9825 0.6675 16.6525 1.6875 16.3125 C1.6875 14.0025 1.6875 11.6925 1.6875 9.3125 C0.73875 9.003125 -0.21 8.69375 -1.1875 8.375 C-4.3125 7.3125 -4.3125 7.3125 -6.3125 6.3125 C-12.84212054 5.50128441 -16.96366563 6.52374232 -22.3125 10.3125 C-22.6425 10.9725 -22.9725 11.6325 -23.3125 12.3125 C-25.875 12.9375 -25.875 12.9375 -28.3125 13.3125 C-28.06668058 8.27320189 -26.45282195 5.44916318 -23.10546875 1.86328125 C-16.40400209 -3.93297641 -7.68283943 -3.91389933 0 0 Z " fill="#F2EAE2" transform="translate(32.3125,5.6875)"/>
<path d="M0 0 C14.19 0 28.38 0 43 0 C43 5.94 43 11.88 43 18 C41.6953199 16.04297985 40.42257633 14.06417543 39.1875 12.0625 C36.18701415 7.86181981 32.76472615 4.98530256 28 3 C21.06745811 2.05915503 15.34696004 2.36426321 9.62109375 6.56640625 C5.52918777 10.18503154 3.29147673 13.33612402 2.69140625 18.8203125 C2.41985937 25.78178695 2.81942813 30.57390886 7.1328125 36.1875 C10.11956479 39.08677419 13.14381706 40.47082401 17 42 C17 42.33 17 42.66 17 43 C11.39 43 5.78 43 0 43 C0 28.81 0 14.62 0 0 Z " fill="#F3EEE9" transform="translate(0,0)"/>
<path d="M0 0 C2.62030933 1.48309508 3.36991825 2.0523365 4.75 4.8125 C4.41270901 8.18540986 2.98985812 9.11556636 0.5 11.3125 C0.17 12.3025 -0.16 13.2925 -0.5 14.3125 C-2.48 14.3125 -4.46 14.3125 -6.5 14.3125 C-6.5 13.6525 -6.5 12.9925 -6.5 12.3125 C-4.85 11.9825 -3.2 11.6525 -1.5 11.3125 C-1.83 10.9825 -2.16 10.6525 -2.5 10.3125 C-4.19141656 10.40213062 -5.87959602 10.55827676 -7.5625 10.75 C-8.48160156 10.85183594 -9.40070312 10.95367187 -10.34765625 11.05859375 C-11.05792969 11.14238281 -11.76820312 11.22617187 -12.5 11.3125 C-12.5 12.3025 -12.5 13.2925 -12.5 14.3125 C-13.82 13.9825 -15.14 13.6525 -16.5 13.3125 C-16.83 11.6625 -17.16 10.0125 -17.5 8.3125 C-18.82 7.9825 -20.14 7.6525 -21.5 7.3125 C-21.4375 5.0625 -21.4375 5.0625 -20.5 2.3125 C-14.01783352 -2.68417 -7.51118114 -3.29202036 0 0 Z " fill="#E9BC7B" transform="translate(30.5,12.6875)"/>
<path d="M0 0 C0.33 0.66 0.66 1.32 1 2 C-0.65 2.33 -2.3 2.66 -4 3 C-4 3.66 -4 4.32 -4 5 C-3.01 4.67 -2.02 4.34 -1 4 C-0.67 4.66 -0.34 5.32 0 6 C-0.33 6.66 -0.66 7.32 -1 8 C0.32 8.33 1.64 8.66 3 9 C3 9.66 3 10.32 3 11 C-0.34048103 13.22698735 -1.53285581 13.2711921 -5.4375 13.25 C-6.38496094 13.25515625 -7.33242188 13.2603125 -8.30859375 13.265625 C-11.06861131 12.99322849 -12.68694904 12.50218365 -15 11 C-16.375 8.6875 -16.375 8.6875 -17 6 C-16.125 3.1875 -16.125 3.1875 -15 1 C-14.67 1.99 -14.34 2.98 -14 4 C-12.68 3.67 -11.36 3.34 -10 3 C-10.33 2.34 -10.66 1.68 -11 1 C-5.555 0.505 -5.555 0.505 0 0 Z " fill="#EFE4D8" transform="translate(28,22)"/>
<path d="M0 0 C0 1.32 0 2.64 0 4 C0.66 4.33 1.32 4.66 2 5 C1.278125 5.2475 0.55625 5.495 -0.1875 5.75 C-4.54726687 7.68767416 -7.3581595 10.03723926 -10 14 C-12.625 14.6875 -12.625 14.6875 -15 15 C-14.71637301 9.18564666 -12.18303812 5.80098077 -8 2 C-4.91511809 0.09590455 -3.83180364 0 0 0 Z " fill="#F3EAE2" transform="translate(19,4)"/>
<path d="M0 0 C0.33 0 0.66 0 1 0 C1 5.28 1 10.56 1 16 C-4.94 16 -10.88 16 -17 16 C-17 15.67 -17 15.34 -17 15 C-15.453125 14.6596875 -15.453125 14.6596875 -13.875 14.3125 C-8.92021964 12.86109969 -5.38532489 10.3117341 -2.73828125 5.89453125 C-1.75825747 3.95167709 -0.84559343 2.00455383 0 0 Z " fill="#F2EEE9" transform="translate(42,27)"/>
<path d="M0 0 C0.66 0.33 1.32 0.66 2 1 C1.814375 2.093125 1.62875 3.18625 1.4375 4.3125 C0.7421932 7.93624133 0.7421932 7.93624133 2 11 C4.00016466 12.20882096 4.00016466 12.20882096 6 13 C5.01 13.33 4.02 13.66 3 14 C2.34 13.67 1.68 13.34 1 13 C1 13.66 1 14.32 1 15 C-3.21543758 13.49448658 -4.86049125 10.82055134 -7 7 C-7 5.68 -7 4.36 -7 3 C-5.68 3 -4.36 3 -3 3 C-3 2.34 -3 1.68 -3 1 C-2.01 0.67 -1.02 0.34 0 0 Z " fill="#F5EFE7" transform="translate(11,22)"/>
<path d="M0 0 C0.33 0.66 0.66 1.32 1 2 C-0.65 2.33 -2.3 2.66 -4 3 C-4 3.66 -4 4.32 -4 5 C-3.01 4.67 -2.02 4.34 -1 4 C-0.67 4.66 -0.34 5.32 0 6 C-0.33 6.66 -0.66 7.32 -1 8 C-4.63 8 -8.26 8 -12 8 C-12.33 7.01 -12.66 6.02 -13 5 C-13.66 5 -14.32 5 -15 5 C-14.67 3.68 -14.34 2.36 -14 1 C-14 1.99 -14 2.98 -14 4 C-12.68 3.67 -11.36 3.34 -10 3 C-10.33 2.34 -10.66 1.68 -11 1 C-5.555 0.505 -5.555 0.505 0 0 Z " fill="#ECD093" transform="translate(28,22)"/>
<path d="M0 0 C1.98 0 3.96 0 6 0 C6.33 0.66 6.66 1.32 7 2 C7.99 2.33 8.98 2.66 10 3 C9.67 3.66 9.34 4.32 9 5 C7.68 5 6.36 5 5 5 C5 5.66 5 6.32 5 7 C3.68 7 2.36 7 1 7 C2.7410336 12.13604912 4.30250259 15.92000285 8 20 C5 20 5 20 3.359375 18.41796875 C-0.75974098 12.70919394 -1.51710489 9.04359181 -0.4296875 2.08984375 C-0.28789063 1.40019531 -0.14609375 0.71054687 0 0 Z " fill="#DBC3B5" transform="translate(3,18)"/>
<path d="M0 0 C6.3759278 -0.53132732 11.83325981 -0.12548387 17 4 C18 6.75 18 6.75 18 9 C13.66905042 9 11.72965139 8.03435531 8 6 C8.66 5.67 9.32 5.34 10 5 C10 4.34 10 3.68 10 3 C6.7 3 3.4 3 0 3 C0 2.01 0 1.02 0 0 Z " fill="#D6623F" transform="translate(17,11)"/>
<path d="M0 0 C3.80489745 1.49478114 5.66190835 3.69442214 8 7 C9.00496852 10.01490557 9.10335303 12.04181692 9.0625 15.1875 C9.05347656 16.08855469 9.04445313 16.98960938 9.03515625 17.91796875 C9.02355469 18.60503906 9.01195312 19.29210937 9 20 C6.70986347 16.5647952 6.82157027 15.014669 7 11 C5.68 11 4.36 11 3 11 C3 8.69 3 6.38 3 4 C2.34 4 1.68 4 1 4 C0.67 2.68 0.34 1.36 0 0 Z " fill="#F0EAE3" transform="translate(32,7)"/>
<path d="M0 0 C1.32 0 2.64 0 4 0 C4.33 1.98 4.66 3.96 5 6 C3.35 6.33 1.7 6.66 0 7 C-0.33 7.99 -0.66 8.98 -1 10 C-1.33 9.34 -1.66 8.68 -2 8 C-2.99 8 -3.98 8 -5 8 C-4.34 6.68 -3.68 5.36 -3 4 C-2.34 4 -1.68 4 -1 4 C-0.67 2.68 -0.34 1.36 0 0 Z " fill="#F1E9DC" transform="translate(35,18)"/>
<path d="M0 0 C1.20076172 0.06960937 1.20076172 0.06960937 2.42578125 0.140625 C3.23402344 0.17671875 4.04226562 0.2128125 4.875 0.25 C5.79732422 0.31960937 5.79732422 0.31960937 6.73828125 0.390625 C7.39828125 1.710625 8.05828125 3.030625 8.73828125 4.390625 C4.11828125 4.390625 -0.50171875 4.390625 -5.26171875 4.390625 C-2.26171875 0.390625 -2.26171875 0.390625 0 0 Z " fill="#EEB73F" transform="translate(19.26171875,17.609375)"/>
<path d="M0 0 C1.98 0 3.96 0 6 0 C6 1.65 6 3.3 6 5 C6.66 5 7.32 5 8 5 C8 6.98 8 8.96 8 11 C7.67 10.34 7.34 9.68 7 9 C5.02111039 8.27306096 3.02045442 7.60183749 1 7 C0.67 4.69 0.34 2.38 0 0 Z " fill="#EFD8C8" transform="translate(27,6)"/>
<path d="M0 0 C0.78503906 0.16757812 1.57007813 0.33515625 2.37890625 0.5078125 C8.61445535 1.71666742 13.06634709 2.42740346 19 0 C18 3 18 3 16 4 C13.28239892 4.07181821 10.59140612 4.09299506 7.875 4.0625 C7.12089844 4.05798828 6.36679687 4.05347656 5.58984375 4.04882812 C3.72652873 4.03703499 1.86325445 4.01909942 0 4 C-0.33 3.34 -0.66 2.68 -1 2 C-0.67 1.34 -0.34 0.68 0 0 Z " fill="#E9D2CA" transform="translate(12,35)"/>
<path d="M0 0 C0.33 0.66 0.66 1.32 1 2 C1.66 2 2.32 2 3 2 C3 2.66 3 3.32 3 4 C0.1875 6.1875 0.1875 6.1875 -3 8 C-3.99 7.67 -4.98 7.34 -6 7 C-5.6875 4.625 -5.6875 4.625 -5 2 C-2 0 -2 0 0 0 Z " fill="#D55F44" transform="translate(15,13)"/>
<path d="M0 0 C0.99 0.33 1.98 0.66 3 1 C3 1.99 3 2.98 3 4 C2.01 4 1.02 4 0 4 C0 4.66 0 5.32 0 6 C-0.66 6 -1.32 6 -2 6 C-2 6.66 -2 7.32 -2 8 C-3.65 7.67 -5.3 7.34 -7 7 C-2.25 1.125 -2.25 1.125 0 0 Z " fill="#EAD3C8" transform="translate(13,5)"/>
<path d="M0 0 C0.33 0.66 0.66 1.32 1 2 C-0.65 2.33 -2.3 2.66 -4 3 C-3.67 3.99 -3.34 4.98 -3 6 C-5.31 6 -7.62 6 -10 6 C-10.33 4.35 -10.66 2.7 -11 1 C-5.555 0.505 -5.555 0.505 0 0 Z " fill="#F9D589" transform="translate(28,22)"/>
<path d="M0 0 C4.34464536 0.60825035 8.67551867 1.26167392 13 2 C13 2.66 13 3.32 13 4 C10.04335481 5.4783226 7.25770263 5.06032783 4 5 C4 4.34 4 3.68 4 3 C3.01 3.33 2.02 3.66 1 4 C0.67 2.68 0.34 1.36 0 0 Z " fill="#E8B49C" transform="translate(14,12)"/>
<path d="M0 0 C0.66 0.66 1.32 1.32 2 2 C1.67 2.33 1.34 2.66 1 3 C5.29 3.33 9.58 3.66 14 4 C14 4.33 14 4.66 14 5 C10.7 5.33 7.4 5.66 4 6 C4 6.99 4 7.98 4 9 C2.125 8.875 2.125 8.875 0 8 C-1.25 4.9375 -1.25 4.9375 -2 2 C-1.34 1.34 -0.68 0.68 0 0 Z " fill="#EEBE6A" transform="translate(14,18)"/>
<path d="M0 0 C1.32 0 2.64 0 4 0 C4.33 0.66 4.66 1.32 5 2 C5.99 2.33 6.98 2.66 8 3 C7.67 3.66 7.34 4.32 7 5 C5.68 5 4.36 5 3 5 C3 5.66 3 6.32 3 7 C2.01 7 1.02 7 0 7 C0 4.69 0 2.38 0 0 Z " fill="#AFA59C" transform="translate(5,18)"/>
<path d="M0 0 C1.98 0 3.96 0 6 0 C5.01 0.495 5.01 0.495 4 1 C4.99 1.33 5.98 1.66 7 2 C7 2.99 7 3.98 7 5 C4.69 4.67 2.38 4.34 0 4 C0 2.68 0 1.36 0 0 Z " fill="#E8CDC3" transform="translate(19,3)"/>
<path d="M0 0 C2.97 0 5.94 0 9 0 C9.33 0.99 9.66 1.98 10 3 C6.7 3 3.4 3 0 3 C0 2.01 0 1.02 0 0 Z " fill="#DD7E69" transform="translate(17,11)"/>
<path d="M0 0 C1.98 0 3.96 0 6 0 C6 1.65 6 3.3 6 5 C4.02 4.34 2.04 3.68 0 3 C0 2.01 0 1.02 0 0 Z " fill="#E8CBC1" transform="translate(27,6)"/>
<path d="M0 0 C3.96 0 7.92 0 12 0 C12.33 0.99 12.66 1.98 13 3 C12.01 2.67 11.02 2.34 10 2 C8.10529184 1.9314505 6.2083166 1.91519628 4.3125 1.9375 C3.31863281 1.94652344 2.32476563 1.95554687 1.30078125 1.96484375 C0.54152344 1.97644531 -0.21773437 1.98804687 -1 2 C-0.67 1.34 -0.34 0.68 0 0 Z " fill="#FAD886" transform="translate(16,17)"/>
<path d="M0 0 C0.66 0.66 1.32 1.32 2 2 C1.67 2.66 1.34 3.32 1 4 C-1.31 4 -3.62 4 -6 4 C-6 3.34 -6 2.68 -6 2 C-4.02 1.34 -2.04 0.68 0 0 Z " fill="#F0CE84" transform="translate(26,26)"/>
<path d="M0 0 C0.66 0 1.32 0 2 0 C2.33 1.98 2.66 3.96 3 6 C2.01 6.33 1.02 6.66 0 7 C0 4.69 0 2.38 0 0 Z " fill="#72716E" transform="translate(37,18)"/>
<path d="M0 0 C1.32 0 2.64 0 4 0 C4.33 1.32 4.66 2.64 5 4 C3.35 4 1.7 4 0 4 C0 2.68 0 1.36 0 0 Z " fill="#FAE5B0" transform="translate(20,24)"/>
</svg>
